<svg version="1.2" xmlns="http://www.w3.org/2000/svg" viewBox="0 0 100 90" width="100" height="90">
	<title>cross-svg</title>
	<style>
		.s0 { fill: #000000 } 
	</style>
	<g id="Layer">
		<path id="Layer" class="s0" d="m74 21c-2.3-2.4-6.1-2.4-8.4 0l-15.6 15.5-15.6-15.5c-2.3-2.4-6.1-2.4-8.4 0-2.4 2.3-2.4 6.1 0 8.4l15.5 15.6-15.5 15.6c-2.4 2.3-2.4 6.1 0 8.4 2.3 2.4 6.1 2.4 8.4 0l15.6-15.5 15.6 15.5c2.3 2.4 6.1 2.4 8.4 0 2.4-2.3 2.4-6.1 0-8.4l-15.5-15.6 15.5-15.6c2.4-2.3 2.4-6.1 0-8.4z"/>
	</g>
</svg>